# xmcd
#
# Track frame offsets: 
#        150
#        6197
#        22910
#        50092
#        68870
#        92182
#        108677
#        124770
#        149970
#        172480
#
# Disc length: 2539 seconds
#
# Revision: 2
# Processed by: cddbd v1.5.2PL0 Copyright (c) Steve Scherf et al.
# Submitted via: ExactAudioCopy v1.3
#
DISCID=9b09e90a
DTITLE=竇唯 - 幻聽
DYEAR=2001
DGENRE=Post Rock
TTITLE0=序.玉樓春.雨.臨江仙
TTITLE1=幻聽
TTITLE2=旺天下
TTITLE3=哪呢
TTITLE4=豐收穫
TTITLE5=覺是
TTITLE6=蕩空山
TTITLE7=暮春秋色
TTITLE8=愛被愛
TTITLE9=灕江水
EXTD=
EXTT0=
EXTT1=
EXTT2=
EXTT3=
EXTT4=
EXTT5=
EXTT6=
EXTT7=
EXTT8=
EXTT9=
PLAYORDER=
